PathFileType	4	(X/Y/Z)	C:/Users/beibeiliu/ov580/test_trc/User3\sequence.40_training_dense_left.trc
DataRate	CameraRate	NumFrames	NumMarkers	Units	OrigDataRate	OrigDataStartFrame	OrigNumFrames
120	120	9	19	mm	120	1	114
Frame#	Time	ThumbCMC			ThumbMCP			ThumbIP			ThumbTip			IndexMCP			IndexPIP			IndexTip			MiddleMCP			MiddlePIP			MiddleTip			RingMCP			RingPIP			RingTip			PinkyMCP			PinkyPIP			PinkyTip			BackHand1			BackHand2			BackHand3	
		X0	Y0	Z0	X1	Y1	Z1	X2	Y2	Z2	X3	Y3	Z3	X4	Y4	Z4	X5	Y5	Z5	X6	Y6	Z6	X7	Y7	Z7	X8	Y8	Z8	X9	Y9	Z9	X10	Y10	Z10	X11	Y11	Z11	X12	Y12	Z12	X13	Y13	Z13	X14	Y14	Z14	X15	Y15	Z15	X16	Y16	Z16	X17	Y17	Z17	X18	Y18	Z18	
0	0	-98.6582	-2.85806	-9.1386	-95.5524	-8.76585	-41.4207	-84.8826	-8.24767	-70.168	-81.6869	-7.87049	-95.698	-117.864	42.7236	-68.8727	-111.757	41.2416	-95.3567	-108.774	35.3264	-126.18	-135.722	18.5552	-74.3056	-127.955	-13.5097	-76.2137	-127.758	-9.62122	-36.6754	-148.476	4.68864	-66.9152	-140.028	-22.1347	-60.2105	-136.497	-14.7552	-26.5579	-166.32	-4.08228	-59.3813	-153.831	-24.3319	-50.9761	-146.981	-15.9267	-21.6352	-158.995	30.8784	-17.057	-157.801	14.1133	17.0095	-126.119	27.966	0.0930395	
1	0.00833333	-92.7089	-11.92	-8.6053	-85.2932	-23.4535	-38.3308	-80.4752	-28.8489	-65.2236	-74.6308	-35.4748	-90.8444	-108.253	23.4068	-75.2655	-103.325	16.9041	-103.938	-100.613	4.81084	-129.499	-124.587	-2.43629	-77.4881	-118.915	-31.6428	-74.6035	-120.819	-23.0465	-34.0062	-144.071	-12.5503	-66.1448	-131.764	-37.8195	-54.7867	-129.061	-21.699	-20.5703	-157.451	-15.4571	-56.654	-144.583	-39.7019	-41.4616	-142.68	-28.4603	-16.0174	-151.949	19.4232	-19.0492	-149.509	12.7653	11.9191	-116.771	20.2569	-5.7007	
2	0.0166667	-89.7671	-22.7428	-4.08877	-83.8333	-38.7579	-30.5317	-74.9519	-50.404	-62.3163	-74.104	-59.4414	-78.9352	-100.257	2.22558	-80.5041	-100.894	-7.29061	-101.964	-94.6125	-20.6763	-124.473	-124.308	-18.5393	-74.6796	-116.376	-49.8534	-68.5601	-114.246	-37.418	-31.2542	-136.791	-26.1466	-63.1549	-128.333	-52.9558	-44.653	-127.034	-33.3342	-17.8575	-154.84	-33.1658	-54.6034	-142.936	-52.8907	-36.0898	-139.559	-36.162	-13.5335	-149.198	9.36907	-21.5235	-145.529	4.99684	9.95573	-114.817	9.94888	-5.04733	
3	0.025	-89.3028	-28.6592	-6.33993	-87.4128	-47.9136	-29.1078	-79.0335	-62.2438	-54.36	-75.432	-74.2622	-70.6387	-107.293	-11.9391	-78.5084	-101.563	-24.6158	-102.994	-104.862	-38.8324	-119.184	-125.6	-29.8426	-71.1734	-118.213	-62.4973	-61.8677	-117.762	-46.4179	-27.3109	-138.484	-40.871	-60.1317	-130.41	-63.7659	-40.1035	-125.62	-45.9548	-15.8809	-154.341	-41.6477	-49.041	-139.753	-61.6746	-32.5801	-138.613	-44.1477	-7.48328	-150.515	-0.559335	-23.4039	-151.957	-1.14484	10.1708	-116.436	4.14563	-7.80842	
4	0.0333333	-97.3695	-29.7871	0.636204	-90.1458	-50.5523	-27.4798	-79.773	-65.8567	-49.1242	-76.9514	-78.9165	-68.5191	-110.692	-14.4823	-73.6461	-109.131	-27.3782	-95.794	-106.081	-43.35	-116.56	-127.767	-38.817	-71.9028	-118.029	-66.2729	-56.811	-117.417	-51.4694	-24.5804	-147.004	-47.4431	-54.6313	-130.941	-68.1848	-35.5762	-130.271	-45.1321	-11.8032	-160.662	-53.0796	-44.1198	-142.047	-65.1789	-29.8641	-141.147	-46.5438	-4.26778	-157.33	-4.13696	-20.2079	-151.933	-3.08934	11.005	-122.954	0.595636	-5.98282	
5	0.0416667	-101.113	-27.4309	-1.87816	-94.1217	-47.6332	-24.9173	-86.0715	-62.8591	-51.1676	-80.6693	-77.0208	-68.2835	-115.321	-13.334	-70.9873	-117.214	-30.1321	-96.7034	-111.654	-43.3321	-114.462	-135.624	-39.519	-67.8787	-121.82	-65.9885	-57.904	-123.297	-51.0442	-22.6369	-150.883	-48.5163	-52.4463	-136.161	-68.6429	-32.8675	-134.272	-48.2871	-9.7601	-162.405	-52.7015	-42.8723	-145.378	-66.2666	-28.3365	-145.75	-46.6759	-3.7709	-158.94	-4.52548	-15.1571	-158.667	-4.84888	15.109	-124.824	2.17745	-3.3354	
6	0.05	-101.056	-24.4559	-0.697408	-93.7778	-45.5657	-25.0243	-89.1192	-60.6712	-45.7535	-85.6478	-72.9307	-66.2281	-122.377	-13.9784	-73.6029	-116.127	-24.8145	-92.4969	-116.107	-41.1472	-113.127	-138.384	-38.0291	-67.1082	-123.661	-62.9095	-59.5488	-123.311	-48.0422	-20.2591	-149.572	-42.7539	-52.3042	-137.54	-66.6663	-35.4094	-132.789	-42.8014	-8.72028	-165.502	-53.2351	-41.1333	-146.177	-64.3808	-22.142	-147.634	-44.0516	-2.01927	-160.418	-5.04287	-13.7031	-163.024	-4.21593	18.0826	-131.502	4.96346	-0.43882	
7	0.0583333	-102.406	-21.1981	4.40764	-95.402	-42.4066	-21.7406	-87.3092	-57.1277	-50.3238	-84.1882	-70.1796	-67.2114	-123.244	-9.25312	-72.429	-117.267	-23.9013	-96.1044	-118.482	-37.4686	-113.03	-138.096	-33.8668	-67.2331	-125.679	-59.8204	-58.9577	-122.282	-42.3169	-19.9021	-150.31	-40.9586	-53.1412	-140.846	-64.4329	-34.5651	-137.175	-44.1117	-9.38828	-164.981	-52.2848	-42.8556	-148.476	-62.8704	-25.7857	-149.467	-39.6832	-1.90594	-167.807	-4.00514	-12.9321	-165.306	-2.55451	16.5589	-131.266	8.92633	-0.863217	
8	0.0666667	-104.337	-21.0096	1.40524	-98.0756	-41.3681	-24.7828	-92.3706	-55.018	-48.5463	-88.5022	-68.1759	-71.0429	-123.954	-6.36925	-70.3363	-119.697	-22.0939	-96.9931	-114.016	-37.988	-117.133	-139.239	-28.615	-66.5255	-127.895	-59.8103	-56.1461	-124.874	-43.7111	-21.6195	-152.193	-41.5771	-53.9563	-141.013	-63.163	-35.9704	-135.38	-39.7565	-10.4507	-168.981	-47.5469	-42.5174	-149.736	-62.0248	-27.4597	-150.3	-41.5289	-1.79428	-166.123	-2.45239	-14.8728	-166.461	-2.68781	19.3901	-133.44	7.26602	0.1168	
